<svg xmlns="http://www.w3.org/2000/svg" viewBox="0 0 512 512" width="512" height="512">
  <defs>
    <linearGradient id="bg" x1="0" y1="0" x2="1" y2="1">
      <stop offset="0" stop-color="#14A0AC"/><stop offset="1" stop-color="#0A5F69"/>
    </linearGradient>
  </defs>
  <rect id="back" width="512" height="512" rx="112" fill="url(#bg)"/>
  <g transform="translate(0 6)">
    <path d="M152 112 h208 a72 72 0 0 1 72 72 v118 a72 72 0 0 1 -72 72 h-128 l-66 52 a8 8 0 0 1 -13 -7 l6 -45 h-7 a72 72 0 0 1 -72 -72 v-118 a72 72 0 0 1 72 -72 z" fill="#FFFFFF"/>
    <g stroke-linecap="round" stroke-width="30" fill="none">
      <line x1="170" y1="223" x2="170" y2="263" stroke="#0C7A85"/>
      <line x1="213" y1="196" x2="213" y2="290" stroke="#0C7A85"/>
      <line x1="256" y1="168" x2="256" y2="318" stroke="#F2784B"/>
      <line x1="299" y1="196" x2="299" y2="290" stroke="#0C7A85"/>
      <line x1="342" y1="223" x2="342" y2="263" stroke="#0C7A85"/>
    </g>
  </g>
</svg>
